STARTFONT 2.1
FONT math.18x30
SIZE 27 80 80
FONTBOUNDINGBOX 18 30 0 -7

STARTPROPERTIES 9
POINT_SIZE 270
WEIGHT 10
RESOLUTION_X 80
RESOLUTION_Y 80
X_HEIGHT 0
QUAD_WIDTH 18
DEFAULT_CHAR 32
FONT_DESCENT 7
FONT_ASCENT 23
ENDPROPERTIES

CHARS 96

STARTCHAR onx32
ENCODING 32
SWIDTH 600 0
DWIDTH 18 0
BBX 18 30 0 -7
BITMAP
000000
000000
000000
000000
000000
000000
000000
000000
000000
000000
000000
000000
000000
000000
000000
000000
000000
000000
000000
000000
000000
000000
000000
000000
000000
000000
000000
000000
000000
000000
ENDCHAR

STARTCHAR onx33
ENCODING 33
SWIDTH 600 0
DWIDTH 18 0
BBX 18 30 0 -7
BITMAP
000040
0000C0
0001C0
000380
000700
000600
000C00
000C00
001800
001800
001800
003000
003000
006000
006000
006000
30C000
30C000
18C000
0D8000
078000
070000
030000
000000
000000
000000
000000
000000
000000
000000
ENDCHAR

STARTCHAR onx34
ENCODING 34
SWIDTH 600 0
DWIDTH 18 0
BBX 18 30 0 -7
BITMAP
00C000
00C000
00C000
00C000
00C000
00C000
00C000
00C000
00C000
00C000
00C000
00C000
00C000
00C000
00C000
00C000
00C000
00C000
00C000
00C000
00C000
00C000
00C000
00C000
00C000
00C000
00C000
00C000
00C000
00C000
ENDCHAR

STARTCHAR onx35
ENCODING 35
SWIDTH 600 0
DWIDTH 18 0
BBX 18 30 0 -7
BITMAP
000000
000000
000000
03E000
07F000
0E3800
0C1800
0E0000
070000
078000
0FC000
1CE000
187000
1C3800
0E1800
073800
03F000
01E000
007000
183000
1C7000
0FE000
07C000
000000
000000
000000
000000
000000
000000
000000
ENDCHAR

STARTCHAR onx36
ENCODING 36
SWIDTH 600 0
DWIDTH 18 0
BBX 18 30 0 -7
BITMAP
000000
000000
000000
000000
3FFF00
3FFF00
300300
100200
180600
180600
080400
0C0C00
0C0C00
061800
061800
021000
033000
033000
012000
01E000
01E000
00C000
00C000
000000
000000
000000
000000
000000
000000
000000
ENDCHAR

STARTCHAR onx37
ENCODING 37
SWIDTH 600 0
DWIDTH 18 0
BBX 18 30 0 -7
BITMAP
000000
000000
000000
000000
000000
00C000
00C000
00C000
00C000
00C000
1FFE00
1FFE00
00C000
00C000
00C000
00C000
00C000
000000
000000
1FFE00
1FFE00
000000
000000
000000
000000
000000
000000
000000
000000
000000
ENDCHAR

STARTCHAR onx38
ENCODING 38
SWIDTH 600 0
DWIDTH 18 0
BBX 18 30 0 -7
BITMAP
000000
000000
000000
000000
000000
000000
000000
000000
000000
000000
000000
000000
03E300
07F700
0E3E00
0C1C00
0C1800
0C1800
0C1C00
0E3E00
07F700
03E300
000000
000000
000000
000000
000000
000000
000000
000000
ENDCHAR

STARTCHAR onx39
ENCODING 39
SWIDTH 600 0
DWIDTH 18 0
BBX 18 30 0 -7
BITMAP
000000
000000
000000
01F000
03F800
071C00
0E0E00
0C0600
0C0000
0C0000
060000
060000
060000
060000
030000
030000
030000
030000
030000
018000
018000
018000
018000
00C000
00C000
00C000
00C000
006000
006000
006000
ENDCHAR

STARTCHAR onx40
ENCODING 40
SWIDTH 600 0
DWIDTH 18 0
BBX 18 30 0 -7
BITMAP
000000
000000
000000
000000
000000
000000
000000
000000
000000
00C000
01E000
01E000
00C000
000000
1FFE00
1FFE00
000000
00C000
01E000
01E000
00C000
000000
000000
000000
000000
000000
000000
000000
000000
000000
ENDCHAR

STARTCHAR onx41
ENCODING 41
SWIDTH 600 0
DWIDTH 18 0
BBX 18 30 0 -7
BITMAP
000000
000000
000000
000000
000000
000000
000000
000000
030200
078600
1FFE00
187800
103000
000000
000000
000000
1FFE00
1FFE00
000000
000000
000000
000000
000000
000000
000000
000000
000000
000000
000000
000000
ENDCHAR

STARTCHAR onx42
ENCODING 42
SWIDTH 600 0
DWIDTH 18 0
BBX 18 30 0 -7
BITMAP
000000
000000
000000
000000
3FFF00
1FFE00
061800
061800
061800
061800
061800
061800
061800
061800
061800
061800
061800
061800
061800
061800
061800
061800
0F3C00
000000
000000
000000
000000
000000
000000
000000
ENDCHAR

STARTCHAR onx43
ENCODING 43
SWIDTH 600 0
DWIDTH 18 0
BBX 18 30 0 -7
BITMAP
000000
000000
000000
000000
0FFF00
0FFF00
030300
030300
030300
030000
030000
030000
030000
030000
030000
030000
030000
030000
030000
030000
030000
0FC000
0FC000
000000
000000
000000
000000
000000
000000
000000
ENDCHAR

STARTCHAR onx44
ENCODING 44
SWIDTH 600 0
DWIDTH 18 0
BBX 18 30 0 -7
BITMAP
000000
000000
000000
000000
C3F0C0
C3F0C0
60C180
60C180
30C300
30C300
18C600
0EDC00
07F800
01E000
00C000
00C000
00C000
00C000
00C000
00C000
00C000
03F000
03F000
000000
000000
000000
000000
000000
000000
000000
ENDCHAR

STARTCHAR onx45
ENCODING 45
SWIDTH 600 0
DWIDTH 18 0
BBX 18 30 0 -7
BITMAP
000000
000000
000000
000000
000000
000000
000000
3FFF00
3FFF00
000000
000000
000000
3FFF00
3FFF00
000000
000000
000000
3FFF00
3FFF00
000000
000000
000000
000000
000000
000000
000000
000000
000000
000000
000000
ENDCHAR

STARTCHAR onx46
ENCODING 46
SWIDTH 600 0
DWIDTH 18 0
BBX 18 30 0 -7
BITMAP
000000
000000
000000
000000
07F800
03F000
00C000
03F000
07F800
0EDC00
1CCE00
38C700
30C300
30C300
30C300
18C600
1CCE00
0EDC00
07F800
03F000
00C000
03F000
07F800
000000
000000
000000
000000
000000
000000
000000
ENDCHAR

STARTCHAR onx47
ENCODING 47
SWIDTH 600 0
DWIDTH 18 0
BBX 18 30 0 -7
BITMAP
000000
000000
000000
100300
3FFE00
3FFE00
600400
000000
000000
000000
000000
080400
0FFC00
0FFC00
080400
000000
000000
000000
000000
000000
100300
3FFE00
3FFE00
600400
000000
000000
000000
000000
000000
000000
ENDCHAR

STARTCHAR onx48
ENCODING 48
SWIDTH 600 0
DWIDTH 18 0
BBX 18 30 0 -7
BITMAP
000000
000000
000000
000000
01E000
03F000
061800
061800
061800
061800
03F000
01E000
000000
000000
000000
000000
000000
000000
000000
000000
000000
000000
000000
000000
000000
000000
000000
000000
000000
000000
ENDCHAR

STARTCHAR onx49
ENCODING 49
SWIDTH 600 0
DWIDTH 18 0
BBX 18 30 0 -7
BITMAP
000000
000000
000000
00E000
01E000
036000
026000
006000
006000
006000
01F800
01F800
000000
000000
000000
000000
000000
000000
000000
000000
000000
000000
000000
000000
000000
000000
000000
000000
000000
000000
ENDCHAR

STARTCHAR onx50
ENCODING 50
SWIDTH 600 0
DWIDTH 18 0
BBX 18 30 0 -7
BITMAP
000000
000000
000000
00F000
01F800
031800
021800
003000
006000
00C000
01F800
01F800
000000
000000
000000
000000
000000
000000
000000
000000
000000
000000
000000
000000
000000
000000
000000
000000
000000
000000
ENDCHAR

STARTCHAR onx51
ENCODING 51
SWIDTH 600 0
DWIDTH 18 0
BBX 18 30 0 -7
BITMAP
000000
000000
00C000
03F000
033000
001800
003000
00E000
003000
001800
033000
03F000
00C000
000000
000000
000000
000000
000000
000000
000000
000000
000000
000000
000000
000000
000000
000000
000000
000000
000000
ENDCHAR

STARTCHAR onx52
ENCODING 52
SWIDTH 600 0
DWIDTH 18 0
BBX 18 30 0 -7
BITMAP
000000
000000
000000
033000
033000
033000
033000
03FC00
03FC00
003000
003000
003000
000000
000000
000000
000000
000000
000000
000000
000000
000000
000000
000000
000000
000000
000000
000000
000000
000000
000000
ENDCHAR

STARTCHAR onx53
ENCODING 53
SWIDTH 600 0
DWIDTH 18 0
BBX 18 30 0 -7
BITMAP
000000
000000
000000
03F800
03F800
030000
033000
03FC00
03CC00
000C00
001800
03F800
03E000
000000
000000
000000
000000
000000
000000
000000
000000
000000
000000
000000
000000
000000
000000
000000
000000
000000
ENDCHAR

STARTCHAR onx54
ENCODING 54
SWIDTH 600 0
DWIDTH 18 0
BBX 18 30 0 -7
BITMAP
000000
000000
00C000
03F000
033000
060000
07E000
07F000
063800
061800
033000
03F000
00C000
000000
000000
000000
000000
000000
000000
000000
000000
000000
000000
000000
000000
000000
000000
000000
000000
000000
ENDCHAR

STARTCHAR onx55
ENCODING 55
SWIDTH 600 0
DWIDTH 18 0
BBX 18 30 0 -7
BITMAP
000000
000000
03F800
03F800
031800
003000
003000
006000
006000
006000
00C000
00C000
000000
000000
000000
000000
000000
000000
000000
000000
000000
000000
000000
000000
000000
000000
000000
000000
000000
000000
ENDCHAR

STARTCHAR onx56
ENCODING 56
SWIDTH 600 0
DWIDTH 18 0
BBX 18 30 0 -7
BITMAP
000000
000000
01E000
03F000
061800
061800
03F000
03F000
061800
061800
033000
03F000
00C000
000000
000000
000000
000000
000000
000000
000000
000000
000000
000000
000000
000000
000000
000000
000000
000000
000000
ENDCHAR

STARTCHAR onx57
ENCODING 57
SWIDTH 600 0
DWIDTH 18 0
BBX 18 30 0 -7
BITMAP
000000
000000
01E000
03F000
061800
061800
03F800
01F800
001800
001800
033000
03F000
00C000
000000
000000
000000
000000
000000
000000
000000
000000
000000
000000
000000
000000
000000
000000
000000
000000
000000
ENDCHAR

STARTCHAR onx58
ENCODING 58
SWIDTH 600 0
DWIDTH 18 0
BBX 18 30 0 -7
BITMAP
000000
000000
000000
000000
000000
03F000
0FFC00
1C0E00
380700
300300
600180
600180
600180
600180
600180
300300
300300
180600
180600
0C0C00
C618C0
FE1FC0
FE1FC0
000000
000000
000000
000000
000000
000000
000000
ENDCHAR

STARTCHAR onx59
ENCODING 59
SWIDTH 600 0
DWIDTH 18 0
BBX 18 30 0 -7
BITMAP
000000
000000
000000
000000
00C000
00C000
01E000
01E000
012000
033000
033000
021000
061800
061800
0C0C00
0C0C00
080400
180600
180600
100200
300300
FC0FC0
FC0FC0
000000
000000
000000
000000
000000
000000
000000
ENDCHAR

STARTCHAR onx60
ENCODING 60
SWIDTH 600 0
DWIDTH 18 0
BBX 18 30 0 -7
BITMAP
000000
000000
000000
000000
000000
000000
000000
000000
000000
000000
000000
1C1C00
3E3E00
636300
C1C180
C1C180
C1C180
636300
3E3E00
1C1C00
000000
000000
000000
000000
000000
000000
000000
000000
000000
000000
ENDCHAR

STARTCHAR onx61
ENCODING 61
SWIDTH 600 0
DWIDTH 18 0
BBX 18 30 0 -7
BITMAP
006000
006000
006000
006000
006000
003000
003000
003000
003000
001800
001800
001800
001800
000C00
000C00
000C00
000C00
000C00
000600
000600
000600
000600
0C0600
0E0E00
071C00
03F800
01F000
000000
000000
000000
ENDCHAR

STARTCHAR onx62
ENCODING 62
SWIDTH 600 0
DWIDTH 18 0
BBX 18 30 0 -7
BITMAP
000000
000000
000000
000000
00C000
00C000
07F800
07F800
00C000
00C000
3FFF00
3FFF00
00C000
00C000
00C000
00C000
00C000
00C000
00C000
00C000
00C000
00C000
00C000
000000
000000
000000
000000
000000
000000
000000
ENDCHAR

STARTCHAR onx63
ENCODING 63
SWIDTH 600 0
DWIDTH 18 0
BBX 18 30 0 -7
BITMAP
000000
000000
000000
000000
1FFE00
1FFE00
1C0600
0E0600
070000
070000
038000
038000
01C000
01C000
038000
038000
070000
070000
0E0000
0E0600
1C0600
1FFE00
1FFE00
000000
000000
000000
000000
000000
000000
000000
ENDCHAR

STARTCHAR onx64
ENCODING 64
SWIDTH 600 0
DWIDTH 18 0
BBX 18 30 0 -7
BITMAP
000000
000000
000000
000000
0FFF00
1FFF00
18CC00
30CC00
30CC00
30CC00
18CC00
1FCC00
0FCC00
00CC00
00CC00
00CC00
00CC00
00CC00
00CC00
00CC00
00CC00
00CC00
00CC00
000000
000000
000000
000000
000000
000000
000000
ENDCHAR

STARTCHAR onx65
ENCODING 65
SWIDTH 600 0
DWIDTH 18 0
BBX 18 30 0 -7
BITMAP
000000
000000
000000
000000
000000
000000
000000
000000
000000
03C000
0FE000
1C7180
183B00
180F00
300600
300600
300600
300600
300E00
181F00
1C7B00
0FE1C0
0780C0
000000
000000
000000
000000
000000
000000
000000
ENDCHAR

STARTCHAR onx66
ENCODING 66
SWIDTH 600 0
DWIDTH 18 0
BBX 18 30 0 -7
BITMAP
000000
000000
000000
000000
07E000
0FF000
181800
300C00
300C00
300C00
300C00
300C00
301800
3FF000
3FF800
300C00
300600
300600
300600
300600
300600
380600
3C0C00
37F800
33F000
300000
600000
600000
000000
000000
ENDCHAR

STARTCHAR onx67
ENCODING 67
SWIDTH 600 0
DWIDTH 18 0
BBX 18 30 0 -7
BITMAP
000000
000000
000000
000000
000000
00C000
00C000
00C000
80C300
E0C300
70C300
30C300
30C300
30C300
30C300
30C300
30C300
30C300
18C600
0CCC00
07F800
03F000
00C000
00C000
00C000
00C000
00C000
000000
000000
000000
ENDCHAR

STARTCHAR onx68
ENCODING 68
SWIDTH 600 0
DWIDTH 18 0
BBX 18 30 0 -7
BITMAP
000000
000000
000000
000000
000000
000C00
000C00
001800
001800
01F000
07F800
0E7C00
1C6E00
186600
30C300
30C300
318300
318300
1B0600
1F0E00
0F1C00
07F800
07E000
0C0000
0C0000
180000
180000
000000
000000
000000
ENDCHAR

STARTCHAR onx69
ENCODING 69
SWIDTH 600 0
DWIDTH 18 0
BBX 18 30 0 -7
BITMAP
000000
000000
000000
000000
000000
000000
000000
000000
000000
00F800
03FC00
038000
070000
070000
070000
07F000
07F000
070000
070000
070000
038000
03FC00
00F800
000000
000000
000000
000000
000000
000000
000000
ENDCHAR

STARTCHAR onx70
ENCODING 70
SWIDTH 600 0
DWIDTH 18 0
BBX 18 30 0 -7
BITMAP
000000
000000
000000
000000
03E000
0FF800
1C1C00
180C00
300600
300600
300600
000600
07FE00
0FFE00
1C0600
180600
180600
180600
180600
0C0600
0E0C00
07FC00
01F000
000000
000000
000000
000000
000000
000000
000000
ENDCHAR

STARTCHAR onx71
ENCODING 71
SWIDTH 600 0
DWIDTH 18 0
BBX 18 30 0 -7
BITMAP
000000
000000
000000
000000
0C0000
060000
030000
030000
018000
018000
00C000
00C000
00E000
00E000
01B000
01B000
031800
031800
060C00
060C00
0C0600
0C0780
180380
000000
000000
000000
000000
000000
000000
000000
ENDCHAR

STARTCHAR onx72
ENCODING 72
SWIDTH 600 0
DWIDTH 18 0
BBX 18 30 0 -7
BITMAP
000000
000000
000000
000000
000000
000000
000000
000000
000000
31F000
1FFC00
0E0E00
0C0600
0C0600
0C0600
0C0600
0C0600
0C0600
0C0600
0C0600
0C0600
0C0600
0C0600
000600
000000
000000
000000
000000
000000
000000
ENDCHAR

STARTCHAR onx73
ENCODING 73
SWIDTH 600 0
DWIDTH 18 0
BBX 18 30 0 -7
BITMAP
000000
000000
000000
000000
000000
000000
000000
000000
000000
03C000
03C000
00C000
00C000
00C000
00C000
00C000
00C000
00C000
00C000
00C000
00C000
00F000
00F000
000000
000000
000000
000000
000000
000000
000000
ENDCHAR

STARTCHAR onx74
ENCODING 74
SWIDTH 600 0
DWIDTH 18 0
BBX 18 30 0 -7
BITMAP
000000
000000
000000
000000
01E000
03F000
061800
0C0C00
1C0E00
180600
380700
380700
380700
3FFF00
3FFF00
380700
380700
180600
1C0E00
0C0C00
061800
03F000
01E000
000000
000000
000000
000000
000000
000000
000000
ENDCHAR

STARTCHAR onx75
ENCODING 75
SWIDTH 600 0
DWIDTH 18 0
BBX 18 30 0 -7
BITMAP
000000
000000
000000
000000
000000
000000
000000
000000
000000
180C00
183E00
187000
18C000
198000
1B0000
1E0000
1E0000
1F0000
198000
18C000
186000
183000
181800
000000
000000
000000
000000
000000
000000
000000
ENDCHAR

STARTCHAR onx76
ENCODING 76
SWIDTH 600 0
DWIDTH 18 0
BBX 18 30 0 -7
BITMAP
000000
000000
000000
000000
000000
000000
000000
000000
000000
180600
300300
300300
30C300
60C180
60C180
60C180
60C180
30C300
30C300
31E300
1BF600
1F3E00
0E1C00
000000
000000
000000
000000
000000
000000
000000
ENDCHAR

STARTCHAR onx77
ENCODING 77
SWIDTH 600 0
DWIDTH 18 0
BBX 18 30 0 -7
BITMAP
000000
000000
000000
000000
000000
000000
000000
000000
000000
780C00
780C00
180C00
180C00
180C00
180C00
180C00
180C00
180C00
180C00
181C00
1C3C00
1FEF80
1BCF80
180000
180000
180000
000000
000000
000000
000000
ENDCHAR

STARTCHAR onx78
ENCODING 78
SWIDTH 600 0
DWIDTH 18 0
BBX 18 30 0 -7
BITMAP
000000
000000
000000
000000
000000
000000
000000
0E0600
1E0600
370E00
230E00
030C00
031C00
039C00
039800
03B800
03B000
01B000
01E000
01E000
01C000
01C000
018000
000000
000000
000000
000000
000000
000000
000000
ENDCHAR

STARTCHAR onx79
ENCODING 79
SWIDTH 600 0
DWIDTH 18 0
BBX 18 30 0 -7
BITMAP
000000
000000
000000
000000
000000
000000
000000
000000
000000
000000
01FC00
03FE00
070600
060300
0E0300
0C0300
0C0300
0C0300
0C0300
0E0600
0F0E00
0DFC00
0CF000
0C0000
0C0000
0C0000
0C0000
0C0000
000000
000000
ENDCHAR

STARTCHAR onx80
ENCODING 80
SWIDTH 600 0
DWIDTH 18 0
BBX 18 30 0 -7
BITMAP
000000
000000
000000
000000
000000
000000
000000
000000
000000
000000
0F0600
1FFE00
1BFC00
031800
031800
031800
031800
031800
031800
031800
031800
031800
031800
000000
000000
000000
000000
000000
000000
000000
ENDCHAR

STARTCHAR onx81
ENCODING 81
SWIDTH 600 0
DWIDTH 18 0
BBX 18 30 0 -7
BITMAP
000000
000000
000000
000000
000000
000000
000000
000000
1C0000
3F0040
7F81C0
61C780
C0DE00
C0F800
C07000
006000
00E000
01C000
018000
038000
038000
070000
070000
0F0000
0F0000
0F0000
060000
000000
000000
000000
ENDCHAR

STARTCHAR onx82
ENCODING 82
SWIDTH 600 0
DWIDTH 18 0
BBX 18 30 0 -7
BITMAP
000000
000000
000000
000000
007800
00FC00
018600
030600
030300
030300
060600
060600
07FE00
0FFE00
0C0600
0C0C00
180C00
180C00
0C1800
0C1800
063000
07E000
03C000
000000
000000
000000
000000
000000
000000
000000
ENDCHAR

STARTCHAR onx83
ENCODING 83
SWIDTH 600 0
DWIDTH 18 0
BBX 18 30 0 -7
BITMAP
000000
000000
000000
000000
000000
000000
0000C0
0001C0
03FF80
07FF00
0E1C00
0C0C00
0C0C00
0C0C00
0C0C00
0C0C00
0C0C00
0C0C00
0C0C00
0C0C00
0E1C00
07F800
03F000
000000
000000
000000
000000
000000
000000
000000
ENDCHAR

STARTCHAR onx84
ENCODING 84
SWIDTH 600 0
DWIDTH 18 0
BBX 18 30 0 -7
BITMAP
000000
000000
000000
000000
000000
000000
000000
000000
000000
001F00
01FF00
0FE000
1EC000
30C000
30C000
30C000
00C000
00C000
00C000
00C000
00C000
00F800
007800
000000
000000
000000
000000
000000
000000
000000
ENDCHAR

STARTCHAR onx85
ENCODING 85
SWIDTH 600 0
DWIDTH 18 0
BBX 18 30 0 -7
BITMAP
000000
000000
000000
040000
0E7C00
07FC00
01F800
070000
060000
0C0000
0C0000
0C0000
060000
07E000
03E000
070000
060000
0C0000
0C0000
0C0000
060000
07F800
01FC00
000600
000600
001C00
003800
000000
000000
000000
ENDCHAR

STARTCHAR onx86
ENCODING 86
SWIDTH 600 0
DWIDTH 18 0
BBX 18 30 0 -7
BITMAP
000000
000000
000000
000000
00C000
00C000
01E000
01E000
012000
033000
033000
021000
061800
061800
0C0C00
0C0C00
080400
180600
180600
100200
300300
3FFF00
3FFF00
000000
000000
000000
000000
000000
000000
000000
ENDCHAR

STARTCHAR onx87
ENCODING 87
SWIDTH 600 0
DWIDTH 18 0
BBX 18 30 0 -7
BITMAP
000000
000000
000000
000000
000000
01F000
03F800
030C00
030000
030000
030000
030000
03C000
01F000
033800
060C00
0C0600
0C0600
0C0600
0C0600
060C00
03F800
01F000
000000
000000
000000
000000
000000
000000
000000
ENDCHAR

STARTCHAR onx88
ENCODING 88
SWIDTH 600 0
DWIDTH 18 0
BBX 18 30 0 -7
BITMAP
000000
000000
000000
000000
000000
000000
000000
000000
000000
300300
180600
0C0C00
061800
033000
01E000
00C000
01E000
033000
061800
0C0C00
180600
300300
200100
000000
000000
000000
000000
000000
000000
000000
ENDCHAR

STARTCHAR onx89
ENCODING 89
SWIDTH 600 0
DWIDTH 18 0
BBX 18 30 0 -7
BITMAP
000000
000000
000000
000000
000000
000000
000000
000000
000000
600300
700300
380300
180300
180300
180300
180300
180300
180300
0C0600
060C00
03F800
01F000
000000
000000
000000
000000
000000
000000
000000
000000
ENDCHAR

STARTCHAR onx90
ENCODING 90
SWIDTH 600 0
DWIDTH 18 0
BBX 18 30 0 -7
BITMAP
000000
000000
000000
040000
0E7C00
07FC00
01F800
070000
060000
0C0000
0C0000
0C0000
0C0000
0C0000
0C0000
0C0000
0C0000
0C0000
0C0000
0C0000
060000
07F800
01FC00
000600
000600
001C00
003800
000000
000000
000000
ENDCHAR

STARTCHAR onx91
ENCODING 91
SWIDTH 600 0
DWIDTH 18 0
BBX 18 30 0 -7
BITMAP
00C000
00C000
01E000
01E000
03F000
03F000
06D800
06D800
0CCC00
0CCC00
00C000
00C000
00C000
00C000
00C000
00C000
00C000
00C000
00C000
00C000
00C000
00C000
00C000
00C000
00C000
00C000
00C000
00C000
00C000
00C000
ENDCHAR

STARTCHAR onx92
ENCODING 92
SWIDTH 600 0
DWIDTH 18 0
BBX 18 30 0 -7
BITMAP
000000
000000
000000
000000
000000
000000
000000
000000
000000
00C000
00F000
003C00
000F00
FFFFC0
FFFFC0
000F00
003C00
00F000
00C000
000000
000000
000000
000000
000000
000000
000000
000000
000000
000000
000000
ENDCHAR

STARTCHAR onx93
ENCODING 93
SWIDTH 600 0
DWIDTH 18 0
BBX 18 30 0 -7
BITMAP
000000
000000
000000
071C00
0FBE00
0FBE00
1DF700
18E300
38E380
00E000
00E000
00E000
00E000
00E000
00E000
00E000
00E000
00E000
00E000
00E000
00E000
03F800
03F800
000000
000000
000000
000000
000000
000000
000000
ENDCHAR

STARTCHAR onx94
ENCODING 94
SWIDTH 600 0
DWIDTH 18 0
BBX 18 30 0 -7
BITMAP
000000
000000
000000
000000
000000
000000
000000
000000
000000
00C000
03C000
0F0000
3C0000
FFFFC0
FFFFC0
3C0000
0F0000
03C000
00C000
000000
000000
000000
000000
000000
000000
000000
000000
000000
000000
000000
ENDCHAR

STARTCHAR onx95
ENCODING 95
SWIDTH 600 0
DWIDTH 18 0
BBX 18 30 0 -7
BITMAP
00C000
00C000
00C000
00C000
00C000
00C000
00C000
00C000
00C000
00C000
00C000
00C000
00C000
00C000
00C000
00C000
00C000
00C000
00C000
00C000
0CCC00
0CCC00
06D800
06D800
03F000
03F000
01E000
01E000
00C000
00C000
ENDCHAR

STARTCHAR onx96
ENCODING 96
SWIDTH 600 0
DWIDTH 18 0
BBX 18 30 0 -7
BITMAP
000000
000000
000000
000000
0FFF00
1FFF00
18CC00
30CC00
30CC00
30CC00
18CC00
1FCC00
0FCC00
00CC00
00CC00
00CC00
00CC00
00CC00
00CC00
00CC00
00CC00
00CC00
00CC00
000000
000000
000000
000000
000000
000000
000000
ENDCHAR

STARTCHAR onx97
ENCODING 97
SWIDTH 600 0
DWIDTH 18 0
BBX 18 30 0 -7
BITMAP
000000
000000
000000
000000
000000
000000
000000
000000
000000
03C000
0FE000
1C7180
183B00
180F00
300600
300600
300600
300600
300E00
181F00
1C7B00
0FE1C0
0780C0
000000
000000
000000
000000
000000
000000
000000
ENDCHAR

STARTCHAR onx98
ENCODING 98
SWIDTH 600 0
DWIDTH 18 0
BBX 18 30 0 -7
BITMAP
000000
000000
000000
000000
07E000
0FF000
181800
300C00
300C00
300C00
300C00
300C00
301800
3FF000
3FF800
300C00
300600
300600
300600
300600
300600
380600
3C0C00
37F800
33F000
300000
600000
600000
000000
000000
ENDCHAR

STARTCHAR onx99
ENCODING 99
SWIDTH 600 0
DWIDTH 18 0
BBX 18 30 0 -7
BITMAP
000000
000000
000000
000000
000000
00C000
00C000
00C000
80C300
E0C300
70C300
30C300
30C300
30C300
30C300
30C300
30C300
30C300
18C600
0CCC00
07F800
03F000
00C000
00C000
00C000
00C000
00C000
000000
000000
000000
ENDCHAR

STARTCHAR onx100
ENCODING 100
SWIDTH 600 0
DWIDTH 18 0
BBX 18 30 0 -7
BITMAP
000000
000000
000000
000000
000000
000C00
000C00
001800
001800
01F000
07F800
0E7C00
1C6E00
186600
30C300
30C300
318300
318300
1B0600
1F0E00
0F1C00
07F800
07E000
0C0000
0C0000
180000
180000
000000
000000
000000
ENDCHAR

STARTCHAR onx101
ENCODING 101
SWIDTH 600 0
DWIDTH 18 0
BBX 18 30 0 -7
BITMAP
000000
000000
000000
000000
000000
000000
000000
000000
000000
00F800
03FC00
038000
070000
070000
070000
07F000
07F000
070000
070000
070000
038000
03FC00
00F800
000000
000000
000000
000000
000000
000000
000000
ENDCHAR

STARTCHAR onx102
ENCODING 102
SWIDTH 600 0
DWIDTH 18 0
BBX 18 30 0 -7
BITMAP
000000
000000
000000
000000
03E000
0FF800
1C1C00
180C00
300600
300600
300600
000600
07FE00
0FFE00
1C0600
180600
180600
180600
180600
0C0600
0E0C00
07FC00
01F000
000000
000000
000000
000000
000000
000000
000000
ENDCHAR

STARTCHAR onx103
ENCODING 103
SWIDTH 600 0
DWIDTH 18 0
BBX 18 30 0 -7
BITMAP
000000
000000
000000
000000
0C0000
060000
030000
030000
018000
018000
00C000
00C000
00E000
00E000
01B000
01B000
031800
031800
060C00
060C00
0C0600
0C0780
180380
000000
000000
000000
000000
000000
000000
000000
ENDCHAR

STARTCHAR onx104
ENCODING 104
SWIDTH 600 0
DWIDTH 18 0
BBX 18 30 0 -7
BITMAP
000000
000000
000000
000000
000000
000000
000000
000000
000000
31F000
1FFC00
0E0E00
0C0600
0C0600
0C0600
0C0600
0C0600
0C0600
0C0600
0C0600
0C0600
0C0600
0C0600
000600
000000
000000
000000
000000
000000
000000
ENDCHAR

STARTCHAR onx105
ENCODING 105
SWIDTH 600 0
DWIDTH 18 0
BBX 18 30 0 -7
BITMAP
000000
000000
000000
000000
000000
000000
000000
000000
000000
03C000
03C000
00C000
00C000
00C000
00C000
00C000
00C000
00C000
00C000
00C000
00C000
00F000
00F000
000000
000000
000000
000000
000000
000000
000000
ENDCHAR

STARTCHAR onx106
ENCODING 106
SWIDTH 600 0
DWIDTH 18 0
BBX 18 30 0 -7
BITMAP
000000
000000
000000
000000
01E000
03F000
061800
0C0C00
1C0E00
180600
380700
380700
380700
3FFF00
3FFF00
380700
380700
180600
1C0E00
0C0C00
061800
03F000
01E000
000000
000000
000000
000000
000000
000000
000000
ENDCHAR

STARTCHAR onx107
ENCODING 107
SWIDTH 600 0
DWIDTH 18 0
BBX 18 30 0 -7
BITMAP
000000
000000
000000
000000
000000
000000
000000
000000
000000
180C00
183E00
187000
18C000
198000
1B0000
1E0000
1E0000
1F0000
198000
18C000
186000
183000
181800
000000
000000
000000
000000
000000
000000
000000
ENDCHAR

STARTCHAR onx108
ENCODING 108
SWIDTH 600 0
DWIDTH 18 0
BBX 18 30 0 -7
BITMAP
000000
000000
000000
000000
000000
000000
000000
000000
000000
180600
300300
300300
30C300
60C180
60C180
60C180
60C180
30C300
30C300
31E300
1BF600
1F3E00
0E1C00
000000
000000
000000
000000
000000
000000
000000
ENDCHAR

STARTCHAR onx109
ENCODING 109
SWIDTH 600 0
DWIDTH 18 0
BBX 18 30 0 -7
BITMAP
000000
000000
000000
000000
000000
000000
000000
000000
000000
780C00
780C00
180C00
180C00
180C00
180C00
180C00
180C00
180C00
180C00
181C00
1C3C00
1FEF80
1BCF80
180000
180000
180000
000000
000000
000000
000000
ENDCHAR

STARTCHAR onx110
ENCODING 110
SWIDTH 600 0
DWIDTH 18 0
BBX 18 30 0 -7
BITMAP
000000
000000
000000
000000
000000
000000
000000
0E0600
1E0600
370E00
230E00
030C00
031C00
039C00
039800
03B800
03B000
01B000
01E000
01E000
01C000
01C000
018000
000000
000000
000000
000000
000000
000000
000000
ENDCHAR

STARTCHAR onx111
ENCODING 111
SWIDTH 600 0
DWIDTH 18 0
BBX 18 30 0 -7
BITMAP
000000
000000
000000
000000
000000
000000
000000
000000
000000
000000
01FC00
03FE00
070600
060300
0E0300
0C0300
0C0300
0C0300
0C0300
0E0600
0F0E00
0DFC00
0CF000
0C0000
0C0000
0C0000
0C0000
0C0000
000000
000000
ENDCHAR

STARTCHAR onx112
ENCODING 112
SWIDTH 600 0
DWIDTH 18 0
BBX 18 30 0 -7
BITMAP
000000
000000
000000
000000
000000
000000
000000
000000
000000
000000
0F0600
1FFE00
1BFC00
031800
031800
031800
031800
031800
031800
031800
031800
031800
031800
000000
000000
000000
000000
000000
000000
000000
ENDCHAR

STARTCHAR onx113
ENCODING 113
SWIDTH 600 0
DWIDTH 18 0
BBX 18 30 0 -7
BITMAP
000000
000000
000000
000000
000000
000000
000000
000000
1C0000
3F0040
7F81C0
61C780
C0DE00
C0F800
C07000
006000
00E000
01C000
018000
038000
038000
070000
070000
0F0000
0F0000
0F0000
060000
000000
000000
000000
ENDCHAR

STARTCHAR onx114
ENCODING 114
SWIDTH 600 0
DWIDTH 18 0
BBX 18 30 0 -7
BITMAP
000000
000000
000000
000000
007800
00FC00
018600
030600
030300
030300
060600
060600
07FE00
0FFE00
0C0600
0C0C00
180C00
180C00
0C1800
0C1800
063000
07E000
03C000
000000
000000
000000
000000
000000
000000
000000
ENDCHAR

STARTCHAR onx115
ENCODING 115
SWIDTH 600 0
DWIDTH 18 0
BBX 18 30 0 -7
BITMAP
000000
000000
000000
000000
000000
000000
0000C0
0001C0
03FF80
07FF00
0E1C00
0C0C00
0C0C00
0C0C00
0C0C00
0C0C00
0C0C00
0C0C00
0C0C00
0C0C00
0E1C00
07F800
03F000
000000
000000
000000
000000
000000
000000
000000
ENDCHAR

STARTCHAR onx116
ENCODING 116
SWIDTH 600 0
DWIDTH 18 0
BBX 18 30 0 -7
BITMAP
000000
000000
000000
000000
000000
000000
000000
000000
000000
001F00
01FF00
0FE000
1EC000
30C000
30C000
30C000
00C000
00C000
00C000
00C000
00C000
00F800
007800
000000
000000
000000
000000
000000
000000
000000
ENDCHAR

STARTCHAR onx117
ENCODING 117
SWIDTH 600 0
DWIDTH 18 0
BBX 18 30 0 -7
BITMAP
000000
000000
000000
040000
0E7C00
07FC00
01F800
070000
060000
0C0000
0C0000
0C0000
060000
07E000
03E000
070000
060000
0C0000
0C0000
0C0000
060000
07F800
01FC00
000600
000600
001C00
003800
000000
000000
000000
ENDCHAR

STARTCHAR onx118
ENCODING 118
SWIDTH 600 0
DWIDTH 18 0
BBX 18 30 0 -7
BITMAP
000000
000000
000000
000000
00C000
00C000
01E000
01E000
012000
033000
033000
021000
061800
061800
0C0C00
0C0C00
080400
180600
180600
100200
300300
3FFF00
3FFF00
000000
000000
000000
000000
000000
000000
000000
ENDCHAR

STARTCHAR onx119
ENCODING 119
SWIDTH 600 0
DWIDTH 18 0
BBX 18 30 0 -7
BITMAP
000000
000000
000000
000000
000000
01F000
03F800
030C00
030000
030000
030000
030000
03C000
01F000
033800
060C00
0C0600
0C0600
0C0600
0C0600
060C00
03F800
01F000
000000
000000
000000
000000
000000
000000
000000
ENDCHAR

STARTCHAR onx120
ENCODING 120
SWIDTH 600 0
DWIDTH 18 0
BBX 18 30 0 -7
BITMAP
000000
000000
000000
000000
000000
000000
000000
000000
000000
300300
180600
0C0C00
061800
033000
01E000
00C000
01E000
033000
061800
0C0C00
180600
300300
200100
000000
000000
000000
000000
000000
000000
000000
ENDCHAR

STARTCHAR onx121
ENCODING 121
SWIDTH 600 0
DWIDTH 18 0
BBX 18 30 0 -7
BITMAP
000000
000000
000000
000000
000000
000000
000000
000000
000000
600300
700300
380300
180300
180300
180300
180300
180300
180300
0C0600
060C00
03F800
01F000
000000
000000
000000
000000
000000
000000
000000
000000
ENDCHAR

STARTCHAR onx122
ENCODING 122
SWIDTH 600 0
DWIDTH 18 0
BBX 18 30 0 -7
BITMAP
000000
000000
000000
040000
0E7C00
07FC00
01F800
070000
060000
0C0000
0C0000
0C0000
0C0000
0C0000
0C0000
0C0000
0C0000
0C0000
0C0000
0C0000
060000
07F800
01FC00
000600
000600
001C00
003800
000000
000000
000000
ENDCHAR

STARTCHAR onx123
ENCODING 123
SWIDTH 600 0
DWIDTH 18 0
BBX 18 30 0 -7
BITMAP
00C000
00C000
01E000
01E000
03F000
03F000
06D800
06D800
0CCC00
0CCC00
00C000
00C000
00C000
00C000
00C000
00C000
00C000
00C000
00C000
00C000
00C000
00C000
00C000
00C000
00C000
00C000
00C000
00C000
00C000
00C000
ENDCHAR

STARTCHAR onx124
ENCODING 124
SWIDTH 600 0
DWIDTH 18 0
BBX 18 30 0 -7
BITMAP
000000
000000
000000
000000
000000
000000
000000
000000
000000
00C000
00F000
003C00
000F00
FFFFC0
FFFFC0
000F00
003C00
00F000
00C000
000000
000000
000000
000000
000000
000000
000000
000000
000000
000000
000000
ENDCHAR

STARTCHAR onx125
ENCODING 125
SWIDTH 600 0
DWIDTH 18 0
BBX 18 30 0 -7
BITMAP
000000
000000
000000
071C00
0FBE00
0FBE00
1DF700
18E300
38E380
00E000
00E000
00E000
00E000
00E000
00E000
00E000
00E000
00E000
00E000
00E000
00E000
03F800
03F800
000000
000000
000000
000000
000000
000000
000000
ENDCHAR

STARTCHAR onx126
ENCODING 126
SWIDTH 600 0
DWIDTH 18 0
BBX 18 30 0 -7
BITMAP
000000
000000
000000
000000
000000
000000
000000
000000
000000
00C000
03C000
0F0000
3C0000
FFFFC0
FFFFC0
3C0000
0F0000
03C000
00C000
000000
000000
000000
000000
000000
000000
000000
000000
000000
000000
000000
ENDCHAR

STARTCHAR onx127
ENCODING 127
SWIDTH 600 0
DWIDTH 18 0
BBX 18 30 0 -7
BITMAP
00C000
00C000
00C000
00C000
00C000
00C000
00C000
00C000
00C000
00C000
00C000
00C000
00C000
00C000
00C000
00C000
00C000
00C000
00C000
00C000
0CCC00
0CCC00
06D800
06D800
03F000
03F000
01E000
01E000
00C000
00C000
ENDCHAR
ENDFONT
